# xmcd
#
# Track frame offsets: 
#        150
#        14387
#        26260
#        35962
#        47427
#        57985
#        70247
#        82580
#        95347
#        107062
#        118982
#        129845
#        141667
#        154002
#        162817
#        175072
#        187672
#        198240
#        209305
#        225270
#        242955
#        254590
#        267805
#        279365
#        291452
#        302812
#        317730
#        328732
#        341085
#
# Disc length: 4675 seconds
#
# Revision: 2
# Processed by: cddbd v1.5.2PL0 Copyright (c) Steve Scherf et al.
# Submitted via: ExactAudioCopy v1.3
#
DISCID=9c12411d
DTITLE=Wynn Stewart - Wishful Thinking_CD06
DYEAR=2000
DGENRE=Country
TTITLE0=Young As Spring
TTITLE1=Come On Home And Sing The Blues To Daddy
TTITLE2=Goin' Steady
TTITLE3=Yours Forever
TTITLE4=Cry Baby
TTITLE5=You don't Care What Happens To Me
TTITLE6=You Can't Wynn, Stewart
TTITLE7=Today I Started Loving You Again
TTITLE8=I'd Do The Impossible
TTITLE9=Care
TTITLE10=Bar Fly
TTITLE11=It's A Beautiful Day
TTITLE12=Let Me Be The First To Go (2000)
TTITLE13=When We Had Nothing
TTITLE14=Let Me Be The First To Go (1970)
TTITLE15=A Maiden's Prayer
TTITLE16=Cheatin's In Style
TTITLE17=It's All In The Game
TTITLE18=Rainy Night In Georgia
TTITLE19=Prisoner On The Run
TTITLE20=Wonder Could I Live There Anymore
TTITLE21=It's A Small Thing
TTITLE22=You're No Secret Of Mine
TTITLE23=Heavenly
TTITLE24=(She Was Made) After Man
TTITLE25=Do It To Someone You Love
TTITLE26=Baby It's Yours
TTITLE27=I Was The First One To Know
TTITLE28=I Can See Sunshine
EXTD=
EXTT0=
EXTT1=
EXTT2=
EXTT3=
EXTT4=
EXTT5=
EXTT6=
EXTT7=
EXTT8=
EXTT9=
EXTT10=
EXTT11=
EXTT12=
EXTT13=
EXTT14=
EXTT15=
EXTT16=
EXTT17=
EXTT18=
EXTT19=
EXTT20=
EXTT21=
EXTT22=
EXTT23=
EXTT24=
EXTT25=
EXTT26=
EXTT27=
EXTT28=
PLAYORDER=
